<?xml version="1.0" encoding="utf-8" ?>
<svg xmlns="http://www.w3.org/2000/svg" xmlns:xlink="http://www.w3.org/1999/xlink" width="10177" height="10177">
	<path fill="#8DECEE" transform="scale(9.93866 9.93866)" d="M0 0L1024 0L1024 585.002L1024 720.518L1024 1024L0 1024L0 719.818L0 563.082L0 0Z"/>
	<path fill="#FBFEFD" transform="scale(9.93866 9.93866)" d="M211.152 131.642C215.936 131.046 221.127 131.521 225.745 132.88C238.551 136.651 244.554 145.339 250.634 156.464C252.239 156.222 253.853 155.981 255.472 155.863C262.273 155.37 269.119 157.281 274.24 161.909Q274.712 162.341 275.163 162.796Q275.613 163.251 276.04 163.727Q276.467 164.204 276.87 164.702Q277.273 165.199 277.651 165.716Q278.028 166.233 278.38 166.768Q278.731 167.303 279.055 167.855Q279.38 168.407 279.676 168.974Q279.972 169.542 280.24 170.123Q280.508 170.704 280.746 171.298Q280.985 171.893 281.193 172.498Q281.402 173.103 281.58 173.718Q281.758 174.333 281.905 174.955Q282.053 175.578 282.169 176.208Q282.285 176.837 282.37 177.472Q282.454 178.106 282.507 178.744Q282.56 179.382 282.581 180.022Q282.599 180.656 282.584 181.29Q282.57 181.923 282.523 182.556Q282.476 183.188 282.397 183.817Q282.318 184.446 282.207 185.07Q282.096 185.694 281.954 186.312Q281.811 186.93 281.637 187.539Q281.464 188.149 281.259 188.749Q281.054 189.349 280.819 189.938Q280.585 190.527 280.32 191.103Q280.055 191.679 279.762 192.241Q279.468 192.803 279.146 193.349Q278.825 193.896 278.475 194.425Q278.126 194.954 277.75 195.464Q277.375 195.975 276.974 196.466Q276.572 196.957 276.147 197.427Q275.721 197.896 275.272 198.344C265.13 208.254 247.914 205.447 234.875 205.379C223.006 205.397 187.114 207.006 178.079 203.87Q177.519 203.68 176.97 203.461Q176.421 203.242 175.884 202.995Q175.347 202.748 174.823 202.474Q174.299 202.2 173.791 201.899Q173.282 201.598 172.789 201.272Q172.296 200.945 171.821 200.594Q171.346 200.242 170.889 199.867Q170.433 199.491 169.996 199.093Q169.559 198.694 169.144 198.274Q168.728 197.853 168.335 197.412Q167.942 196.971 167.572 196.51Q167.202 196.049 166.856 195.569Q166.51 195.09 166.189 194.593Q165.869 194.097 165.574 193.584Q165.279 193.072 165.011 192.545Q164.743 192.018 164.503 191.478Q164.262 190.933 164.049 190.377Q163.836 189.821 163.65 189.255Q163.465 188.689 163.308 188.114Q163.151 187.539 163.022 186.958Q162.894 186.376 162.795 185.789Q162.696 185.201 162.626 184.61Q162.556 184.018 162.516 183.424Q162.476 182.83 162.465 182.234Q162.454 181.638 162.473 181.043Q162.492 180.448 162.541 179.854Q162.59 179.26 162.668 178.67Q162.746 178.079 162.853 177.493Q162.96 176.907 163.097 176.328Q163.233 175.748 163.398 175.175Q163.563 174.603 163.757 174.04Q163.95 173.476 164.171 172.923C167.299 164.921 173.134 160.851 180.625 157.477C182.27 153.352 183.863 149.438 186.471 145.819C192.46 137.511 201.245 133.267 211.152 131.642Z"/>
	<path fill="#F0B18E" transform="scale(9.93866 9.93866)" d="M799.022 133.724C816.057 133.914 831.358 139.425 844.002 151.045Q845.153 152.117 846.25 153.243Q847.347 154.37 848.387 155.549Q849.428 156.728 850.409 157.957Q851.39 159.185 852.31 160.461Q853.23 161.736 854.087 163.055Q854.943 164.374 855.733 165.733Q856.524 167.092 857.247 168.488Q857.97 169.885 858.624 171.315Q859.278 172.745 859.86 174.205Q860.443 175.666 860.954 177.153Q861.464 178.64 861.901 180.151Q862.339 181.661 862.701 183.191Q863.063 184.722 863.35 186.268Q863.638 187.814 863.848 189.372Q864.059 190.93 864.194 192.497Q864.328 194.064 864.385 195.635C865.093 212.863 858.327 231.144 846.604 243.785C834.368 256.979 818.025 262.859 800.334 263.522C783.461 263.725 767.966 258.165 755.275 246.966Q754.103 245.926 752.984 244.829Q751.865 243.732 750.801 242.582Q749.736 241.431 748.73 240.23Q747.724 239.029 746.778 237.779Q745.832 236.53 744.948 235.235Q744.065 233.941 743.246 232.605Q742.427 231.269 741.675 229.894Q740.923 228.519 740.239 227.109Q739.556 225.699 738.942 224.257Q738.329 222.815 737.787 221.345Q737.245 219.874 736.776 218.379Q736.307 216.884 735.912 215.367Q735.517 213.851 735.197 212.317Q734.877 210.783 734.633 209.235Q734.389 207.687 734.221 206.129Q734.053 204.57 733.962 203.006C732.979 185.527 738.602 168.681 750.351 155.625C763.084 141.475 780.26 134.662 799.022 133.724Z"/>
	<path fill="#F0B18E" transform="scale(9.93866 9.93866)" d="M933.182 625.36C934.868 617.779 937.144 611.034 941.264 604.402Q942.055 603.143 942.906 601.923Q943.758 600.704 944.667 599.528Q945.577 598.351 946.543 597.221Q947.508 596.09 948.528 595.007Q949.548 593.925 950.619 592.893Q951.69 591.862 952.81 590.883Q953.93 589.905 955.096 588.983Q956.262 588.06 957.472 587.195Q958.682 586.33 959.932 585.526Q961.183 584.721 962.471 583.978Q963.759 583.234 965.082 582.555Q966.405 581.875 967.759 581.261Q969.113 580.647 970.496 580.099Q971.878 579.551 973.286 579.071Q974.693 578.591 976.122 578.181Q977.552 577.77 978.999 577.429Q980.425 577.1 981.866 576.842Q983.307 576.584 984.759 576.396Q986.211 576.209 987.67 576.094Q989.129 575.978 990.592 575.934Q992.055 575.89 993.519 575.918Q994.982 575.947 996.443 576.047Q997.903 576.147 999.357 576.318Q1000.81 576.49 1002.25 576.733Q1003.7 576.976 1005.13 577.29Q1006.56 577.603 1007.97 577.987Q1009.38 578.37 1010.77 578.822Q1012.17 579.275 1013.53 579.795Q1014.9 580.315 1016.24 580.902Q1017.58 581.489 1018.9 582.141Q1020.21 582.793 1021.48 583.509Q1022.76 584.224 1024 585.002L1024 720.518C1012.23 720.7 994.901 719.14 983.55 716.118C968.315 710.318 950.825 706.046 935.036 701.376L849.903 675.955C840.437 673.135 823.228 670.203 815.335 666.459Q816.724 665.073 818.258 663.849Q819.791 662.625 821.45 661.578Q823.11 660.531 824.875 659.673Q826.639 658.815 828.488 658.158C839.897 654.076 850.932 656.695 861.588 661.651C862.141 656.529 863.164 651.57 865.3 646.855Q865.801 645.769 866.354 644.709Q866.907 643.649 867.512 642.617Q868.116 641.585 868.771 640.584Q869.425 639.583 870.128 638.615Q870.831 637.648 871.58 636.716Q872.329 635.784 873.123 634.89Q873.917 633.996 874.755 633.142Q875.592 632.288 876.469 631.476Q877.347 630.664 878.264 629.896Q879.181 629.128 880.134 628.406Q881.087 627.683 882.075 627.009Q883.062 626.334 884.082 625.709Q885.101 625.084 886.15 624.51Q887.199 623.935 888.274 623.413Q889.35 622.89 890.45 622.421Q891.55 621.953 892.672 621.538C907.322 616.237 919.513 618.965 933.182 625.36Z"/>
	<path fill="#F0B18E" transform="scale(9.93866 9.93866)" d="M0 563.082C17.2833 559.299 34.6483 560.973 49.7246 570.719C63.4766 579.609 71.0141 592.657 76.524 607.678C87.2929 601.384 98.6631 598.867 110.936 602.086C122.089 605.011 132.303 612.628 138.092 622.629C140.331 626.496 141.623 630.464 142.856 634.742C152.704 631.807 163.713 633.467 172.701 638.322C181.07 642.843 187.629 649.872 191.068 658.747C191.987 661.118 192.865 664.964 194.41 666.938C180.941 670.761 167.643 675.182 154.226 679.182L15.0563 721.283C10.17 721.927 4.78437 720.757 0 719.818L0 563.082Z"/>
	<path fill="#F06039" transform="scale(9.93866 9.93866)" d="M502.016 496.658C523.031 501.449 543.198 516.89 549.814 537.842C551.843 544.267 552.316 552.504 556.654 557.901C558.726 560.48 561.863 562.286 565.171 562.619C572.351 563.342 577.388 557.353 582.42 553.229C587.232 549.285 593.028 547.35 599.241 548.072C604.194 548.647 608.767 550.771 612.705 553.771C630.985 567.693 621.026 589.693 633.311 604.478C649.24 623.647 668.108 593.245 685.459 595.193C705.741 597.469 705.165 621.346 715.794 634.2C724.045 644.176 737.452 648.75 749.729 643.536C758.788 639.689 764.208 631.698 775.179 633.043C792.852 635.208 805.579 653.438 815.335 666.459C823.228 670.203 840.437 673.135 849.903 675.955L935.036 701.376C950.825 706.046 968.315 710.318 983.55 716.118C982.421 716.653 981.59 716.818 980.328 716.843C972.007 717.004 963.53 716.217 955.216 715.752C942.592 715.045 929.894 714.57 917.252 715.062Q896.75 716.053 876.571 719.81C866.646 721.709 856.866 724.362 846.963 726.382Q836.065 728.602 825.007 729.796Q813.949 730.99 802.828 731.146C771.725 731.472 739.756 722.003 709.384 715.732C698.437 713.472 687.391 711.138 676.216 710.389C664.157 709.581 651.86 710.68 639.848 711.767C615.552 713.966 591.66 717.943 567.591 721.772C547.262 725.007 526.625 728.512 505.991 728.599C474.485 728.732 447.165 720.152 416.606 714.811Q404.899 712.728 393.042 711.825Q381.185 710.922 369.297 711.208C316.706 712.842 267.211 731.981 214.83 731.728C172.605 731.524 132.163 712.197 91.5014 712.913Q79.8412 713.146 68.3092 714.886C56.1573 716.752 25.8171 724.755 15.0563 721.283L154.226 679.182C167.643 675.182 180.941 670.761 194.41 666.938C200.211 664.81 207.229 663.922 212.41 660.48C214.785 658.901 216.418 655.765 218.151 653.524C223.248 646.936 231.382 642.123 239.086 639.246C248.678 635.664 258.92 634.571 268.492 638.886C272.561 640.72 276.309 643.222 280.4 645.027C285.386 647.226 290.65 647.986 295.998 646.68C309.968 643.268 312.04 632.111 322.293 625.015C326.778 621.91 332.332 621.65 337.288 619.64C346.431 615.932 348.457 608.102 352.08 599.989C356.29 590.561 364.276 584.306 373.753 580.669C384.324 576.613 396.613 576.216 405.933 583.564C410.131 586.874 413.794 590.85 418.827 592.935C424.85 595.429 431.26 594.645 437.072 591.999C455.928 583.413 445.41 565.766 450.942 551.693C452.838 546.872 456.974 542.461 461.784 540.469C470.027 537.055 477.625 541.217 485.214 544.104C490.311 546.042 495.991 547.509 501.166 544.997C505.975 542.664 509.603 537.816 511.214 532.801C515.296 520.092 507.812 507.454 502.016 496.658Z"/>
	<path fill="#E4464B" transform="scale(9.93866 9.93866)" d="M15.0563 721.283C25.8171 724.755 56.1573 716.752 68.3092 714.886Q79.8412 713.146 91.5014 712.913C132.163 712.197 172.605 731.524 214.83 731.728C267.211 731.981 316.706 712.842 369.297 711.208Q381.185 710.922 393.042 711.825Q404.899 712.728 416.606 714.811C447.165 720.152 474.485 728.732 505.991 728.599C526.625 728.512 547.262 725.007 567.591 721.772C591.66 717.943 615.552 713.966 639.848 711.767C651.86 710.68 664.157 709.581 676.216 710.389C687.391 711.138 698.437 713.472 709.384 715.732C739.756 722.003 771.725 731.472 802.828 731.146Q813.949 730.99 825.007 729.796Q836.065 728.602 846.963 726.382C856.866 724.362 866.646 721.709 876.571 719.81Q896.75 716.053 917.252 715.062C929.894 714.57 942.592 715.045 955.216 715.752C963.53 716.217 972.007 717.004 980.328 716.843C981.59 716.818 982.421 716.653 983.55 716.118C994.901 719.14 1012.23 720.7 1024 720.518L1024 1024L0 1024L0 719.818C4.78437 720.757 10.17 721.927 15.0563 721.283Z"/>
	<path fill="#C1F6FF" transform="scale(9.93866 9.93866)" d="M535.295 850.068C535.802 850.1 536.293 850.173 536.788 850.289C539.805 850.998 543.686 853.922 545.255 856.585C546.016 857.877 545.871 858.577 545.469 859.901C542.94 862.523 539.786 862.089 536.385 862.224C532.705 862.03 529.264 862.315 526.278 859.869C525.76 858.679 525.404 858.12 525.91 856.8C527.145 853.58 532.244 851.028 535.295 850.068Z"/>
	<path fill="#C1F6FF" transform="scale(9.93866 9.93866)" d="M754.073 796.028C757.773 795.565 760.825 796.504 764.054 798.333C766.608 799.78 769.045 801.659 769.866 804.576C769.7 805.392 769.748 805.941 769.142 806.563C767.385 808.367 764.096 807.984 761.75 808.059C757.274 808.265 750.652 809.157 746.835 806.475C746.213 805.237 745.898 804.814 746.41 803.399C747.399 800.664 751.684 797.475 754.073 796.028Z"/>
	<path fill="#C1F6FF" transform="scale(9.93866 9.93866)" d="M136.296 902.125C138.019 902.205 139.8 902.384 141.415 903.015C146.733 905.093 149.032 909.727 151.054 914.688C146.593 916.354 142.332 916.902 137.623 917.34C132.594 917.376 127.87 916.462 123.135 914.828C123.828 912.711 124.599 910.673 125.835 908.802C128.392 904.932 131.856 903.084 136.296 902.125Z"/>
	<path fill="#C1F6FF" transform="scale(9.93866 9.93866)" d="M297.38 808.578C301.651 808.182 305.948 808.768 309.667 811.027C315.22 814.399 317.086 819.931 318.518 825.888C314.024 827.24 309.359 827.844 304.72 828.449C296.812 828.609 289.806 827.572 282.337 824.955C282.904 822.835 283.551 820.648 284.518 818.675C287.292 813.015 291.62 810.446 297.38 808.578Z"/>
	<path fill="#C1F6FF" transform="scale(9.93866 9.93866)" d="M430.628 926.67C438.971 926.066 447.206 928.04 454.158 932.763C462.698 938.564 466.62 946.6 468.475 956.512C459.166 960.571 448.512 961.19 438.503 961.868C425.546 962.173 411.994 960.641 399.728 956.372C400.854 950.399 403.048 944.85 406.742 939.991C412.784 932.041 420.895 928.065 430.628 926.67Z"/>
	<path fill="#C1F6FF" transform="scale(9.93866 9.93866)" d="M86.8564 792.644C95.7536 791.76 104.338 793.057 112.204 797.463C123.291 803.673 129.655 813.77 133.017 825.747C122.103 830.669 109.786 831.601 97.995 832.463C81.1807 832.694 66.3789 830.605 50.2513 825.959C51.9676 820.17 54.0085 814.729 57.5228 809.759C64.5715 799.792 75.0754 794.709 86.8564 792.644Z"/>
	<path fill="#C1F6FF" transform="scale(9.93866 9.93866)" d="M914.277 854.703C922.594 854.745 930.622 856.153 938.161 859.774C952.931 866.867 959.677 877.334 964.877 892.395C950.125 898.658 933.885 899.737 918.057 900.412C900.959 900.275 882.399 899.11 866.472 892.523C867.984 885.026 871.756 877.747 876.749 871.976C886.443 860.772 899.801 855.75 914.277 854.703Z"/>
</svg>
