<?xml version="1.0" encoding="utf-8" ?>
<svg xmlns="http://www.w3.org/2000/svg" xmlns:xlink="http://www.w3.org/1999/xlink" width="2435" height="2435">
	<path fill="#C3496A" transform="scale(2.37793 2.37793)" d="M501.11 390.006C502.997 389.951 505.009 390.042 506.876 389.823L507.159 395.406C505.136 395.506 503.085 395.829 501.068 396.031C499.239 396.215 496.357 396.618 494.84 395.389L495.015 394.362C496.75 392.476 498.934 391.312 501.11 390.006Z"/>
	<path fill="#C3496A" transform="scale(2.37793 2.37793)" d="M534.882 383.107C535.572 386.318 534.554 389.271 533.699 392.35C531.603 391.625 529.442 391.958 527.383 392.614C526.62 390.136 526.105 387.934 525.884 385.334C528.907 384.691 531.891 383.882 534.882 383.107Z"/>
	<path fill="#C35326" transform="scale(2.37793 2.37793)" d="M527.383 392.614C529.442 391.958 531.603 391.625 533.699 392.35L537.043 407.046C534.567 408.997 532.223 410.59 529.202 411.625C523.134 413.564 516.714 414.485 510.557 416.171C510.471 410.75 509.766 405.271 509.289 399.87L508.908 396.021C515.444 395.895 521.144 394.376 527.383 392.614Z"/>
	<path fill="#B02A23" transform="scale(2.37793 2.37793)" d="M527.383 392.614C529.442 391.958 531.603 391.625 533.699 392.35L537.043 407.046C534.567 408.997 532.223 410.59 529.202 411.625C528.963 408.845 528.738 405.801 527.886 403.128C527.19 400.945 525.963 398.801 523.806 397.805C519.191 395.675 513.627 398.245 509.289 399.87L508.908 396.021C515.444 395.895 521.144 394.376 527.383 392.614Z"/>
	<path fill="#C35326" transform="scale(2.37793 2.37793)" d="M529.202 411.625C532.223 410.59 534.567 408.997 537.043 407.046C537.446 409.378 537.616 411.508 537.555 413.874C538.277 428.216 542.199 442.877 546.384 456.571C542.922 457.371 538.573 458.011 535.015 458.023C535.021 445.199 533.252 433.013 531.621 420.336C526.747 421.51 521.364 421.951 516.369 422.091L513.676 422.79L510.762 422.958C510.435 420.747 510.572 418.409 510.557 416.171C516.714 414.485 523.134 413.564 529.202 411.625Z"/>
	<path fill="#B2344E" transform="scale(2.37793 2.37793)" d="M529.202 411.625C532.223 410.59 534.567 408.997 537.043 407.046C537.446 409.378 537.616 411.508 537.555 413.874C530.386 418.424 520.753 418.916 516.369 422.091L513.676 422.79L510.762 422.958C510.435 420.747 510.572 418.409 510.557 416.171C516.714 414.485 523.134 413.564 529.202 411.625Z"/>
	<path fill="#EA7637" transform="scale(2.37793 2.37793)" d="M516.369 422.091C521.364 421.951 526.747 421.51 531.621 420.336C533.252 433.013 535.021 445.199 535.015 458.023C527.592 458.222 520.373 459.611 513.004 460.107C513.034 457.248 512.844 454.466 512.6 451.62Q512.014 437.268 510.762 422.958L513.676 422.79L516.369 422.091Z"/>
	<path fill="#FBBB79" transform="scale(2.37793 2.37793)" d="M510.762 422.958L513.676 422.79C515.391 423.62 516.121 425.022 516.731 426.748C518.729 432.406 519.706 442.305 516.993 447.728C515.998 449.715 514.48 450.549 512.6 451.62Q512.014 437.268 510.762 422.958Z"/>
	<path fill="#C35326" transform="scale(2.37793 2.37793)" d="M546.384 456.571L547.33 460.502C549.058 478.991 552.458 497.393 554.605 515.861C549.322 516.479 544.435 516.898 539.14 516.104C546.037 500.064 542.356 483.738 538.989 467.339C532.93 468.553 526.615 469.334 520.459 468.538C518.138 468.604 515.809 468.796 513.49 468.93C513.198 465.993 513.107 463.056 513.004 460.107C520.373 459.611 527.592 458.222 535.015 458.023C538.573 458.011 542.922 457.371 546.384 456.571Z"/>
	<path fill="#B02A23" transform="scale(2.37793 2.37793)" d="M546.384 456.571L547.33 460.502C539.383 465.593 528.89 464.796 520.459 468.538C518.138 468.604 515.809 468.796 513.49 468.93C513.198 465.993 513.107 463.056 513.004 460.107C520.373 459.611 527.592 458.222 535.015 458.023C538.573 458.011 542.922 457.371 546.384 456.571Z"/>
	<path fill="#EA7637" transform="scale(2.37793 2.37793)" d="M520.459 468.538C526.615 469.334 532.93 468.553 538.989 467.339C542.356 483.738 546.037 500.064 539.14 516.104Q526.734 515.913 514.328 516.076C514.645 509.42 514.396 502.667 514.424 495.997C513.543 489.771 513.977 483.113 514.034 476.834C514.071 474.178 513.763 471.568 513.49 468.93C515.809 468.796 518.138 468.604 520.459 468.538Z"/>
	<path fill="#FBBB79" transform="scale(2.37793 2.37793)" d="M514.034 476.834C516.334 477.106 518.281 477.211 519.805 479.211C524.087 484.829 523.87 498.658 522.703 505.329C522.332 507.445 521.765 509.183 520.177 510.665C519.403 510.753 519.091 510.981 518.419 510.478C516.957 509.384 516.143 507.327 515.999 505.547C515.722 502.119 516.637 498.914 514.424 495.997C513.543 489.771 513.977 483.113 514.034 476.834Z"/>
	<path fill="#EA7637" transform="scale(2.37793 2.37793)" d="M539.14 516.104C544.435 516.898 549.322 516.479 554.605 515.861L555.334 519.841L558.276 552.625C558.811 558.59 559.608 564.601 559.761 570.587C559.338 571.223 559.39 571.486 558.607 571.647C550.189 573.377 539.717 573.753 531.259 572.067C525.357 571.929 519.408 571.361 513.515 570.967C513.994 564.331 513.997 557.687 514.057 551.038L514.098 532.061C514.384 529.199 514.287 526.319 514.253 523.448C514.186 520.997 514.29 518.528 514.328 516.076Q526.734 515.913 539.14 516.104Z"/>
	<path fill="#B02A23" transform="scale(2.37793 2.37793)" d="M539.14 516.104C544.435 516.898 549.322 516.479 554.605 515.861L555.334 519.841C550.329 520.09 545.486 521.144 540.616 522.274Q527.478 523.831 514.253 523.448C514.186 520.997 514.29 518.528 514.328 516.076Q526.734 515.913 539.14 516.104Z"/>
	<path fill="#FBBB79" transform="scale(2.37793 2.37793)" d="M514.098 532.061C515.83 531.261 517.746 530.09 519.685 530.113C521.55 531.123 522.183 532.634 522.772 534.598C524.789 541.324 525.253 553.915 521.826 560.224C521.222 561.335 520.914 561.546 519.842 562.118C517.93 561.34 517.015 559.915 516.242 558.03C515.326 555.794 514.725 553.36 514.057 551.038L514.098 532.061Z"/>
	<path fill="#C35326" transform="scale(2.37793 2.37793)" d="M555.334 519.841L558.276 552.625C558.811 558.59 559.608 564.601 559.761 570.587C559.338 571.223 559.39 571.486 558.607 571.647C550.189 573.377 539.717 573.753 531.259 572.067C531.616 572.063 531.972 572.045 532.329 572.05C532.493 572.052 532.656 572.07 532.819 572.077C537.053 572.248 540.761 569.275 543.739 566.601Q544.494 563.01 544.914 559.365C545.619 553.438 547.543 527.585 543.166 522.838C542.604 522.229 541.411 522.349 540.616 522.274C545.486 521.144 550.329 520.09 555.334 519.841Z"/>
	<path fill="#EA7637" transform="scale(2.37793 2.37793)" d="M486.927 305.888C491.704 305.957 497.433 306.599 501.535 309.198C517.976 319.618 530.628 363.772 534.882 383.107C531.891 383.882 528.907 384.691 525.884 385.334C526.105 387.934 526.62 390.136 527.383 392.614C521.144 394.376 515.444 395.895 508.908 396.021L507.159 395.406L506.876 389.823C505.009 390.042 502.997 389.951 501.11 390.006C499.405 358.935 483.84 339.412 486.927 305.888Z"/>
	<path fill="#C35326" transform="scale(2.37793 2.37793)" d="M506.876 389.823C506.124 375.556 499.913 365.609 497.241 352.25C496.008 346.088 496.517 334.519 500.01 329.315C500.727 329.081 500.87 328.814 501.581 329.272C504.396 331.084 505.907 336.091 507.546 338.901C509.254 341.828 511.47 344.444 513.164 347.378C519.765 358.814 523.648 372.418 525.884 385.334C526.105 387.934 526.62 390.136 527.383 392.614C521.144 394.376 515.444 395.895 508.908 396.021L507.159 395.406L506.876 389.823Z"/>
	<path fill="#B2344E" transform="scale(2.37793 2.37793)" d="M525.884 385.334C526.105 387.934 526.62 390.136 527.383 392.614C521.144 394.376 515.444 395.895 508.908 396.021L507.159 395.406L506.876 389.823C513.262 388.471 519.583 387.038 525.884 385.334Z"/>
	<path fill="#EA7637" transform="scale(2.37793 2.37793)" d="M559.761 570.587Q559.943 573.038 560.079 575.493C561.767 594.229 561.859 613.115 562.729 631.902C561.29 632.765 537.751 632.093 534.896 631.49C531.355 630.854 527.551 630.854 523.963 630.499C518.709 629.979 513.651 628.973 508.523 627.757C511.496 611.655 511.856 594.746 512.936 578.427C513.056 575.94 513.315 573.449 513.515 570.967C519.408 571.361 525.357 571.929 531.259 572.067C539.717 573.753 550.189 573.377 558.607 571.647C559.39 571.486 559.338 571.223 559.761 570.587Z"/>
	<path fill="#B02A23" transform="scale(2.37793 2.37793)" d="M559.761 570.587Q559.943 573.038 560.079 575.493C555.515 576.186 551.05 577.027 546.566 578.126C535.72 580.869 523.957 579.308 512.936 578.427C513.056 575.94 513.315 573.449 513.515 570.967C519.408 571.361 525.357 571.929 531.259 572.067C539.717 573.753 550.189 573.377 558.607 571.647C559.39 571.486 559.338 571.223 559.761 570.587Z"/>
	<path fill="#FBBB79" transform="scale(2.37793 2.37793)" d="M517.036 583.645C517.623 583.805 518.194 583.987 518.755 584.226C521.097 585.223 522.36 587.123 523.258 589.442C526.918 598.889 523.566 612.916 519.557 621.775C518.708 621.604 517.88 621.433 517.068 621.123C515.115 620.38 513.95 618.539 513.222 616.668C509.54 607.205 513.342 592.604 517.036 583.645Z"/>
	<path fill="#C35326" transform="scale(2.37793 2.37793)" d="M546.566 578.126C551.05 577.027 555.515 576.186 560.079 575.493C561.767 594.229 561.859 613.115 562.729 631.902C561.29 632.765 537.751 632.093 534.896 631.49C538.923 629.297 542.627 627.156 544.756 622.887C549.054 614.269 549.509 586.85 546.566 578.126Z"/>
	<path fill="#EA7637" transform="scale(2.37793 2.37793)" d="M508.523 627.757C513.651 628.973 518.709 629.979 523.963 630.499C527.551 630.854 531.355 630.854 534.896 631.49C537.751 632.093 561.29 632.765 562.729 631.902L563.14 635.52C564.73 649.322 562.997 663.268 562.858 677.099C561.75 681.615 562.587 688.484 562.616 693.187C553.378 692.257 541.345 693.065 532.776 691.085C527.652 690.615 502.944 687.463 500.129 685.101C504.324 669.066 506.223 651.798 508.003 635.328L508.523 627.757Z"/>
	<path fill="#B02A23" transform="scale(2.37793 2.37793)" d="M508.523 627.757C513.651 628.973 518.709 629.979 523.963 630.499C527.551 630.854 531.355 630.854 534.896 631.49C537.751 632.093 561.29 632.765 562.729 631.902L563.14 635.52C556.11 636.27 549.326 637.053 542.368 638.416C530.789 638.909 519.422 636.947 508.003 635.328L508.523 627.757Z"/>
	<path fill="#FBBB79" transform="scale(2.37793 2.37793)" d="M511.475 640.657C512.476 640.789 513.524 640.907 514.495 641.193C516.639 641.824 518.38 644.013 519.218 645.988C523.084 655.105 517.225 669.192 513.969 677.835C512.718 677.8 511.393 677.634 510.195 677.252C508.79 676.804 507.658 675.595 506.974 674.328C502.741 666.482 509.072 648.756 511.475 640.657Z"/>
	<path fill="#C35326" transform="scale(2.37793 2.37793)" d="M542.368 638.416C549.326 637.053 556.11 636.27 563.14 635.52C564.73 649.322 562.997 663.268 562.858 677.099C561.75 681.615 562.587 688.484 562.616 693.187C553.378 692.257 541.345 693.065 532.776 691.085C537.879 688.197 542.151 685.447 544.172 679.68C547.078 671.391 550.551 647.088 546.66 638.975C545.384 638.06 543.861 638.357 542.368 638.416Z"/>
	<path fill="#EA7637" transform="scale(2.37793 2.37793)" d="M562.616 693.187C562.587 688.484 561.75 681.615 562.858 677.099C562.977 685.136 563.581 693.78 562.663 701.755Q562.042 732.475 560.498 763.163C547.5 761.472 532.997 763.055 520.689 758.004C508.77 758.008 497.761 750.757 486.099 749.82C492.556 731.643 495.933 712.348 498.636 693.301C499.021 690.555 499.61 687.825 500.129 685.101C502.944 687.463 527.652 690.615 532.776 691.085C541.345 693.065 553.378 692.257 562.616 693.187Z"/>
	<path fill="#B02A23" transform="scale(2.37793 2.37793)" d="M562.616 693.187C562.587 688.484 561.75 681.615 562.858 677.099C562.977 685.136 563.581 693.78 562.663 701.755C562.651 700.582 562.764 698.709 562.018 697.751C562.001 697.752 561.984 697.751 561.968 697.753C556.405 698.482 550.798 697.661 545.205 698.778C531.162 700.743 512.64 695.795 498.636 693.301C499.021 690.555 499.61 687.825 500.129 685.101C502.944 687.463 527.652 690.615 532.776 691.085C541.345 693.065 553.378 692.257 562.616 693.187Z"/>
	<path fill="#FBBB79" transform="scale(2.37793 2.37793)" d="M503.555 698.212C505.215 698.631 506.94 699.11 508.193 700.34C510.633 702.734 511.288 706.749 511.363 710.014C511.595 720.195 510.025 734.397 502.719 742.125C501.633 741.769 500.518 741.421 499.476 740.948C497.274 739.949 496.02 737.835 495.291 735.621C491.99 725.593 499.061 707.158 503.555 698.212Z"/>
	<path fill="#C35326" transform="scale(2.37793 2.37793)" d="M545.205 698.778C550.798 697.661 556.405 698.482 561.968 697.753C561.984 697.751 562.001 697.752 562.018 697.751C562.764 698.709 562.651 700.582 562.663 701.755Q562.042 732.475 560.498 763.163C547.5 761.472 532.997 763.055 520.689 758.004C527.03 756.261 532.595 754.46 536.914 749.114C545.668 738.277 546.446 712.431 545.205 698.778Z"/>
	<path fill="#EA7637" transform="scale(2.37793 2.37793)" d="M486.099 749.82C497.761 750.757 508.77 758.008 520.689 758.004C532.997 763.055 547.5 761.472 560.498 763.163L560.194 767.566C558.005 791.922 554.665 816.126 551.985 840.427C544.96 839.147 536.687 837.905 529.574 838.707C522.365 836.75 514.91 835.752 507.911 833.026C493.064 831.293 479.462 823.682 464.9 820.692C473.995 800.423 479.473 778.865 484.184 757.223L486.099 749.82Z"/>
	<path fill="#B02A23" transform="scale(2.37793 2.37793)" d="M486.099 749.82C497.761 750.757 508.77 758.008 520.689 758.004C532.997 763.055 547.5 761.472 560.498 763.163L560.194 767.566C552.694 767.278 545.292 767.358 537.789 767.55C523.171 767.047 499.004 760.573 484.184 757.223L486.099 749.82Z"/>
	<path fill="#FBBB79" transform="scale(2.37793 2.37793)" d="M489.096 764.791C493.186 765.217 495.631 767.004 498.505 769.781C498.765 784.477 495.601 799.865 487.472 812.268C485.734 812.047 483.824 811.915 482.229 811.135C480.233 810.159 478.821 808.177 478.127 806.106C474.667 795.783 484.454 774.21 489.096 764.791Z"/>
	<path fill="#C35326" transform="scale(2.37793 2.37793)" d="M537.789 767.55C545.292 767.358 552.694 767.278 560.194 767.566C558.005 791.922 554.665 816.126 551.985 840.427C544.96 839.147 536.687 837.905 529.574 838.707C522.365 836.75 514.91 835.752 507.911 833.026C515.694 831.701 522.53 830.091 527.483 823.33C536.102 811.563 537.234 794.354 538.453 780.28C538.789 776.396 539.717 772.237 539.087 768.367L537.789 767.55Z"/>
	<path fill="#EA7637" transform="scale(2.37793 2.37793)" d="M464.9 820.692C479.462 823.682 493.064 831.293 507.911 833.026C514.91 835.752 522.365 836.75 529.574 838.707C536.687 837.905 544.96 839.147 551.985 840.427C551.636 842.569 551.389 844.787 550.821 846.881C549.069 857.792 547.329 868.588 544.545 879.298C543.722 881.414 543.008 883.545 542.311 885.704Q539.537 896.961 537.617 908.395C530.969 906.031 522.642 907.191 515.637 906.91Q507.43 906.602 499.38 904.976C473.151 905.441 460.473 901.34 439.039 885.822L439.044 885C446.519 873.703 458.522 841.327 462.157 827.686C463.011 825.328 463.948 823.012 464.9 820.692Z"/>
	<path fill="#B02A23" transform="scale(2.37793 2.37793)" d="M464.9 820.692C479.462 823.682 493.064 831.293 507.911 833.026C514.91 835.752 522.365 836.75 529.574 838.707L528.103 842.593L527.129 844.791C515.877 842.346 504.593 839.888 493.481 836.86C482.984 833.999 472.647 830.572 462.157 827.686C463.011 825.328 463.948 823.012 464.9 820.692Z"/>
	<path fill="#FBBB79" transform="scale(2.37793 2.37793)" d="M466.19 835.845C468.518 836.226 470.825 836.764 473.133 837.255C474.486 838.953 475.713 840.773 476.983 842.535C474.262 857.873 468.236 871.076 460.208 884.304C458.143 884.732 456.144 884.281 454.274 883.325C452.146 882.237 450.778 880.599 450.167 878.286C447.235 867.186 460.706 845.456 466.19 835.845Z"/>
	<path fill="#C35326" transform="scale(2.37793 2.37793)" d="M529.574 838.707C536.687 837.905 544.96 839.147 551.985 840.427C551.636 842.569 551.389 844.787 550.821 846.881C549.069 857.792 547.329 868.588 544.545 879.298C543.722 881.414 543.008 883.545 542.311 885.704Q539.537 896.961 537.617 908.395C530.969 906.031 522.642 907.191 515.637 906.91Q507.43 906.602 499.38 904.976C501.936 901.001 507.323 898.251 510.345 894.293C518.608 883.472 525.682 858.5 527.129 844.791L528.103 842.593L529.574 838.707Z"/>
	<path fill="#B2344E" transform="scale(2.37793 2.37793)" d="M529.574 838.707C536.687 837.905 544.96 839.147 551.985 840.427C551.636 842.569 551.389 844.787 550.821 846.881C543.696 844.432 536.187 848.813 528.103 842.593L529.574 838.707Z"/>
	<path fill="#FBBB79" transform="scale(2.37793 2.37793)" d="M544.545 879.298C553.558 879.532 562.622 879.63 571.612 880.34C595.178 882.201 618.543 886.088 641.896 889.661Q684.254 895.776 726.075 904.868Q767.895 913.961 808.969 925.985C819.474 929.132 841.963 934.511 848.886 942.225C849.566 942.983 849.859 943.713 850.122 944.696C849.714 946.445 849.153 947.055 847.625 948.006C839.352 953.152 827.033 955.235 817.439 956.94C795.107 960.91 772.063 962.929 749.477 965.045Q697.818 970.124 645.946 972.041C632.25 972.503 618.177 974.191 604.529 972.879C604.49 972.076 604.613 972.183 604.233 971.595C596.839 960.136 516.274 912.709 503.322 910.052C514.207 910 525.659 910.127 536.168 913.222C536.693 911.628 537.142 910.005 537.617 908.395Q539.537 896.961 542.311 885.704C543.008 883.545 543.722 881.414 544.545 879.298Z"/>
	<path fill="#F18482" transform="scale(2.37793 2.37793)" d="M542.311 885.704C548.031 886.704 553.719 888.31 559.356 889.71C599.225 899.608 635.96 917.077 669.998 939.905Q623.945 927.676 577.017 919.417C563.451 917.05 549.73 915.613 536.168 913.222C536.693 911.628 537.142 910.005 537.617 908.395Q539.537 896.961 542.311 885.704Z"/>
	<path fill="#F5D7B4" transform="scale(2.37793 2.37793)" d="M604.529 972.879Q563.786 974.783 523 974.391C475.935 974.286 200.067 970.902 178.982 950.34C177.949 949.333 177.86 948.664 177.754 947.276C178.335 945.86 178.951 944.961 180.097 943.93C189.327 935.625 203.927 932.262 215.486 928.353C267.229 910.855 319.887 899.744 373.779 891.422C395.405 888.083 417.083 884.301 439.044 885L439.039 885.822C460.473 901.34 473.151 905.441 499.38 904.976Q507.43 906.602 515.637 906.91C522.642 907.191 530.969 906.031 537.617 908.395C537.142 910.005 536.693 911.628 536.168 913.222C525.659 910.127 514.207 910 503.322 910.052C516.274 912.709 596.839 960.136 604.233 971.595C604.613 972.183 604.49 972.076 604.529 972.879Z"/>
	<path fill="#B02A23" transform="scale(2.37793 2.37793)" d="M439.039 885.822C460.473 901.34 473.151 905.441 499.38 904.976Q507.43 906.602 515.637 906.91C522.642 907.191 530.969 906.031 537.617 908.395C537.142 910.005 536.693 911.628 536.168 913.222C525.659 910.127 514.207 910 503.322 910.052C477.725 908.56 452.465 908.917 427.36 914.794C425.792 910.053 432.806 899.58 434.976 895.237C436.067 892.046 437.669 888.91 439.039 885.822Z"/>
	<path fill="#F18482" transform="scale(2.37793 2.37793)" d="M325.977 934.657C364.397 913.885 390.625 899.564 434.976 895.237C432.806 899.58 425.792 910.053 427.36 914.794C393.278 919.568 359.599 927.414 325.977 934.657Z"/>
</svg>
