<?xml version="1.0" encoding="utf-8" ?>
<svg xmlns="http://www.w3.org/2000/svg" xmlns:xlink="http://www.w3.org/1999/xlink" width="2435" height="2435">
	<path fill="#396292" transform="scale(2.37793 2.37793)" d="M583.663 384.308C585.535 382.038 588.654 382.36 591.361 381.974C592.507 383.503 592.869 383.884 594.767 384.228C602.381 385.609 615.892 384.388 623.722 383.461Q626.739 386.963 629.594 390.6Q632.449 394.236 635.136 397.998Q637.823 401.76 640.335 405.64Q642.848 409.521 645.182 413.512Q647.515 417.502 649.665 421.595Q651.815 425.688 653.776 429.874Q655.737 434.06 657.506 438.332Q659.275 442.603 660.848 446.95C658.462 447.447 656.978 447.689 655.115 449.342C653.799 450.51 652.641 451.06 650.979 451.602L650.559 452.617C651.653 454.481 653.715 455.06 655.723 455.604C658.451 456.342 661.315 456.744 664.1 457.219Q667.493 467.977 669.808 479.017C671.322 485.955 680.175 532.131 677.675 536.271C677.326 536.848 677.377 536.757 676.918 537.045L675.613 539.472C676.229 541.543 677.866 542.775 679.386 544.222C680.262 556.643 680.026 569.158 679.978 581.603C679.88 607.13 679.716 633.462 674.756 658.593C673.941 655.781 673.129 652.98 672.161 650.215C673.304 648.616 673.23 646.998 673.131 645.133C673.479 644.629 673.528 644.618 673.753 643.937C675.735 637.921 671.643 610.77 670.582 603.346C661.707 541.249 642.857 481.09 611.299 426.643C602.848 412.063 592.659 398.546 583.663 384.308Z"/>
	<path fill="#FFFFFE" transform="scale(2.37793 2.37793)" d="M657.531 537.195C663.975 536.798 670.486 536.284 676.918 537.045L675.613 539.472C675.403 540.216 675.057 540.623 674.607 541.241C670.004 542.302 661.845 538.699 657.531 537.195Z"/>
	<path fill="#1A7695" transform="scale(2.37793 2.37793)" d="M502.107 311.748C504.976 312.619 507.666 314.298 510.091 316.046Q512.916 320.408 515.657 324.824C536.724 331.059 553.928 349.545 567.752 365.962C572.939 372.122 577.858 378.723 583.663 384.308C592.659 398.546 602.848 412.063 611.299 426.643C642.857 481.09 661.707 541.249 670.582 603.346C671.643 610.77 675.735 637.921 673.753 643.937C673.528 644.618 673.479 644.629 673.131 645.133C673.23 646.998 673.304 648.616 672.161 650.215C666.409 640.014 661.12 629.517 655.623 619.173Q640.801 591.668 626.657 563.808C630.79 557.687 636.138 552.718 640.073 546.3C634.062 549.898 628.877 554.589 623.562 559.114C613.352 544.78 603.212 526.02 594.153 510.587C599.356 503.368 604.432 496.264 608.481 488.305C601.289 493.6 596.766 499.765 591.668 506.99C587.722 501.331 584.178 495.351 580.336 489.612C570.683 475.19 561.147 461.137 552.743 445.909C551.921 447.321 552.073 449.757 551.877 451.397C550.854 451.725 550.647 451.703 549.655 451.351C545.598 449.912 541.349 446.416 538.06 443.701C521.559 430.081 518.105 420.299 509.026 401.957C503.262 384.189 496.903 366.64 492.751 348.398C492.275 344.864 491.523 341.387 490.8 337.897C489.914 329.489 491.362 321.792 492.874 313.56L492.908 312.417L493.057 312.101C496.064 312.003 499.11 311.991 502.107 311.748Z"/>
	<path fill="#47256E" transform="scale(2.37793 2.37793)" d="M515.657 324.824C536.724 331.059 553.928 349.545 567.752 365.962C572.939 372.122 577.858 378.723 583.663 384.308C592.659 398.546 602.848 412.063 611.299 426.643C642.857 481.09 661.707 541.249 670.582 603.346C671.643 610.77 675.735 637.921 673.753 643.937C673.528 644.618 673.479 644.629 673.131 645.133C672.319 624.807 668.879 604.529 664.759 584.644C650.144 514.112 623.451 444.462 579.435 386.899C569.761 374.247 559.315 361.769 547.487 351.058C537.941 342.413 527.397 335.453 516.668 328.408L515.657 324.824Z"/>
	<path fill="#C0562E" transform="scale(2.37793 2.37793)" d="M502.107 311.748C504.976 312.619 507.666 314.298 510.091 316.046Q512.916 320.408 515.657 324.824L516.668 328.408C521.558 355.197 526.944 382.063 536.419 407.672C541.24 420.701 547.426 433.118 552.743 445.909C551.921 447.321 552.073 449.757 551.877 451.397C550.854 451.725 550.647 451.703 549.655 451.351C545.598 449.912 541.349 446.416 538.06 443.701C521.559 430.081 518.105 420.299 509.026 401.957C503.262 384.189 496.903 366.64 492.751 348.398C492.275 344.864 491.523 341.387 490.8 337.897C489.914 329.489 491.362 321.792 492.874 313.56L492.908 312.417L493.057 312.101C496.064 312.003 499.11 311.991 502.107 311.748Z"/>
	<path fill="#1A7695" transform="scale(2.37793 2.37793)" d="M337.28 273.969C348.81 271.859 360.493 272.501 372.117 273.297C376.888 273.623 381.749 274.208 386.529 274C397.854 278.178 409.812 279.325 421.515 281.997C440.363 286.3 458.429 293.287 476.172 300.851C482.312 303.468 488.902 305.958 494.523 309.591L497.621 310.53C498.283 310.904 498.738 310.828 499.483 310.842C501.37 309.84 502.418 308.165 503.678 306.497C504.007 307.995 504.516 309.382 503.893 310.86C503.243 311.297 502.876 311.542 502.107 311.748C499.11 311.991 496.064 312.003 493.057 312.101C448.773 311.515 410.446 314.354 370.113 333.948C360.562 338.588 352.733 346.824 343.047 350.797C349.1 340.934 355.885 331.068 360.346 320.37C352.506 327.321 346.055 335.694 339.451 343.79C336.053 347.957 332.429 353.54 328.047 356.666C326.654 357.66 283.543 369.106 276.98 371.024C281.745 358.842 286.287 346.826 289.306 334.077C280.727 346.568 276.259 362.228 267.106 373.993C259.706 377.597 251.03 379.54 243.16 382.02C233.903 384.936 224.738 388.196 215.562 391.358C215.365 382.615 214.657 373.884 214.462 365.133C210.719 374.595 209.146 385.028 207.156 394.979C197.96 399.209 188.165 402.144 178.744 405.839Q156.109 414.76 134.605 426.142C142.545 406.945 155.161 388.348 167.703 371.889C200.905 328.316 247.435 294.856 300.618 280.652C312.701 277.425 324.901 275.634 337.28 273.969Z"/>
	<path fill="#3A3C7C" transform="scale(2.37793 2.37793)" d="M337.28 273.969C348.81 271.859 360.493 272.501 372.117 273.297C376.888 273.623 381.749 274.208 386.529 274C397.854 278.178 409.812 279.325 421.515 281.997C440.363 286.3 458.429 293.287 476.172 300.851C482.312 303.468 488.902 305.958 494.523 309.591C494.001 309.703 493.479 309.823 492.95 309.899C484.669 311.082 455.775 300.154 445.808 297.377C421.462 290.593 396.403 285.599 371.55 281.041C361.87 279.266 351.961 278.283 342.363 276.167C340.33 275.719 338.947 275.219 337.28 273.969Z"/>
	<path fill="#3A3C7C" transform="scale(2.37793 2.37793)" d="M378.092 299.21C391.885 297.752 446.839 299.948 459.054 304.694C461.519 305.652 463.328 308.44 465.966 309.766C466.18 309.874 466.396 309.976 466.611 310.081L466.565 310.528C461.843 310.975 455.835 309.064 451.16 308.105C436.648 305.128 421.427 303.995 406.648 303.471Q403.226 303.352 399.802 303.298Q396.378 303.245 392.953 303.258Q389.529 303.272 386.106 303.351Q382.682 303.431 379.261 303.577Q375.84 303.723 372.422 303.936Q369.004 304.148 365.591 304.427Q362.178 304.705 358.771 305.05Q355.364 305.395 351.964 305.805Q348.565 306.216 345.174 306.693Q341.783 307.169 338.401 307.711Q335.02 308.254 331.65 308.861Q328.28 309.469 324.922 310.142Q321.565 310.815 318.221 311.553Q314.877 312.291 311.548 313.093Q308.219 313.896 304.906 314.763Q301.593 315.63 298.298 316.561Q295.003 317.492 291.726 318.487Q288.449 319.482 285.193 320.54Q281.936 321.598 278.7 322.72Q275.464 323.841 272.251 325.024Q269.038 326.208 265.848 327.454Q262.658 328.7 259.493 330.007Q256.328 331.314 253.189 332.683Q250.05 334.052 246.938 335.481Q243.826 336.91 240.743 338.399Q237.659 339.888 234.605 341.437Q231.551 342.986 228.527 344.593Q225.504 346.201 222.512 347.867Q219.52 349.533 216.561 351.257Q213.602 352.98 210.677 354.761Q207.752 356.542 204.863 358.379Q201.973 360.216 199.119 362.109Q189.639 368.771 180.69 376.131Q171.74 383.491 163.374 391.507C158.128 396.528 153.392 402.911 147.714 407.349L147.623 406.788Q148.386 405.799 149.192 404.845C209.677 334.51 287.09 305.82 378.092 299.21Z"/>
	<path fill="#06BBB1" transform="scale(2.37793 2.37793)" d="M446.921 384.119C457.227 374.456 465.556 363.377 475.077 353.016C479.97 347.692 485.509 342.827 490.8 337.897C491.523 341.387 492.275 344.864 492.751 348.398C496.903 366.64 503.262 384.189 509.026 401.957C501.692 408.553 495.653 414.866 490.278 423.281C477.608 443.114 468.001 479.473 464.61 502.651C457.143 498.938 449.75 495.137 441.855 492.398C447.082 501.091 454.356 507.667 459.957 515.889C455.147 533.454 448.354 550.419 443.334 567.916C437.264 564.539 431.191 561.055 424.898 558.107C428.454 565.263 435.556 571.067 440.705 577.136C435.598 593.411 429.785 609.483 424.221 625.606C420.034 637.74 416.342 650.436 410.663 661.966C382.548 610.676 366.339 551.124 373.556 492.477C375.502 476.661 380.701 461.435 383.164 445.691C392.715 432.383 409.521 422.301 423.251 413.709C418.034 401.095 412.833 388.441 406.912 376.138C414.218 383.611 420.821 391.908 427.493 399.951C433.775 394.359 439.924 388.823 446.921 384.119Z"/>
	<path fill="#1A7695" transform="scale(2.37793 2.37793)" d="M446.921 384.119C457.227 374.456 465.556 363.377 475.077 353.016C479.97 347.692 485.509 342.827 490.8 337.897C491.523 341.387 492.275 344.864 492.751 348.398C485.175 353.292 479.207 360.985 473.631 367.984C444.266 404.844 427.696 449.837 417.884 495.517Q415.099 508.562 412.971 521.729Q410.843 534.896 409.376 548.154Q407.909 561.412 407.107 574.726Q406.305 588.04 406.171 601.378C406.005 614.104 407.289 626.817 406.915 639.535C404.628 629.627 404.104 619.273 403.265 609.156Q402.795 604.047 402.448 598.929Q402.101 593.81 401.878 588.685Q401.655 583.559 401.556 578.43Q401.456 573.301 401.481 568.17Q401.506 563.04 401.655 557.912Q401.803 552.784 402.076 547.661Q402.348 542.538 402.744 537.423Q403.141 532.308 403.66 527.204Q404.18 522.1 404.823 517.01Q405.466 511.92 406.231 506.847Q406.997 501.775 407.885 496.722Q408.773 491.669 409.782 486.639Q410.792 481.609 411.923 476.605Q413.054 471.601 414.306 466.626Q415.557 461.65 416.928 456.707Q418.3 451.763 419.79 446.854C424.786 430.288 430.255 413.97 439.472 399.215C442.057 395.077 446.952 389.04 446.921 384.119Z"/>
	<path fill="#3A3C7C" transform="scale(2.37793 2.37793)" d="M519.752 194.805C560.912 135.142 615.889 101.571 687.01 88.4545C716.872 82.9472 746.633 82.0086 776.888 81.39Q760.075 92.1375 744.197 104.223Q728.319 116.308 713.481 129.651C704.612 137.619 696.669 146.819 687.413 154.319C675.137 148.644 663.295 140.045 650.502 135.816C657.978 147.005 669.957 154.237 679.023 164.003C671.195 172.033 663.21 179.894 655.531 188.071C649.293 194.713 643.363 201.668 637.079 208.256C623.575 206.636 610.29 202.905 596.83 200.771C606.867 207.529 618.998 212.767 625.734 223.252C588.445 235.974 551.695 257.785 524.392 286.453C521.878 289.715 519.234 292.713 516.205 295.511C511.743 300.444 507.807 305.743 503.592 310.876L513.465 306.731C520.027 306.149 526.352 303.77 532.598 301.797Q542.491 299.843 552.496 298.582Q562.501 297.322 572.57 296.761Q582.639 296.2 592.722 296.342Q602.805 296.484 612.854 297.327Q620.917 298.007 628.941 299.057C633.881 299.732 642.902 302.172 647.431 301.532C650.22 303.509 657.13 303.952 660.706 304.589C661.911 305.125 663.039 305.777 664.391 305.713C671.824 308.826 679.737 311.422 686.909 315.055C676.568 317.357 653.152 312.317 641.485 311.338Q627.465 310.137 613.403 309.636Q599.341 309.136 585.272 309.338Q571.202 309.539 557.16 310.443Q543.118 311.346 529.139 312.949C523.403 313.58 515.259 313.639 510.091 316.046C507.666 314.298 504.976 312.619 502.107 311.748C502.876 311.542 503.243 311.297 503.893 310.86C504.516 309.382 504.007 307.995 503.678 306.497C504.012 304.783 504.802 303.121 505.452 301.501C513.941 278.818 525.422 252.219 524.787 227.589C524.505 216.619 522.025 205.504 519.752 194.805Z"/>
	<path fill="#47256E" transform="scale(2.37793 2.37793)" d="M516.205 295.511C515.961 295.009 515.972 295.076 515.786 294.432C512.82 284.201 534.716 245.558 541.066 235.332C574.002 182.284 622.804 135.77 679.807 109.605C691.3 104.329 703.166 99.4425 715.512 96.5685C705.843 101.066 695.554 104.338 685.749 108.569C668.726 115.915 652.841 125.687 637.787 136.461C596.36 166.112 565.264 205.142 540.544 249.356C534.015 261.035 526.613 273.084 524.392 286.453C521.878 289.715 519.234 292.713 516.205 295.511Z"/>
	<path fill="#DE5A5A" transform="scale(2.37793 2.37793)" d="M625.734 223.252C637.491 219.205 649.436 217.051 661.737 215.502C709.539 209.482 756.837 218.835 799.933 239.888C831.868 255.488 862.267 275.314 888.321 299.573Q861.146 296.709 833.823 296.401C823.635 296.34 813.133 297.269 803 296.713C793.699 287.499 787.541 275.61 778.347 266.34C781.624 276.898 787.131 286.759 790.061 297.379Q761.77 298.122 733.571 300.525C727.258 288.347 719.996 276.399 712.421 264.961C714.545 277.271 720.136 288.572 723.216 300.617C703.801 302.554 683.342 300.271 664.391 305.713C663.039 305.777 661.911 305.125 660.706 304.589C657.13 303.952 650.22 303.509 647.431 301.532C642.902 302.172 633.881 299.732 628.941 299.057Q620.917 298.007 612.854 297.327Q602.805 296.484 592.722 296.342Q582.639 296.2 572.57 296.761Q562.501 297.322 552.496 298.582Q542.491 299.843 532.598 301.797C526.352 303.77 520.027 306.149 513.465 306.731L503.592 310.876C507.807 305.743 511.743 300.444 516.205 295.511C519.234 292.713 521.878 289.715 524.392 286.453C551.695 257.785 588.445 235.974 625.734 223.252ZM640.142 273.473C641.498 282.993 644.71 292.321 647.431 301.532C650.22 303.509 657.13 303.952 660.706 304.589C656.399 294.803 647.249 281.477 640.142 273.473Z"/>
	<path fill="#B1324E" transform="scale(2.37793 2.37793)" d="M513.465 306.731C518.978 300.817 528.772 297.37 535.987 293.957C562.889 281.232 589.895 269.849 618.733 262.211Q621.833 261.374 624.947 260.595Q628.062 259.815 631.19 259.092Q634.318 258.37 637.459 257.704Q640.6 257.039 643.753 256.431Q646.906 255.824 650.069 255.274Q653.232 254.724 656.405 254.232Q659.578 253.74 662.759 253.306Q665.94 252.872 669.129 252.497Q672.317 252.121 675.512 251.804Q678.707 251.487 681.907 251.229Q685.108 250.97 688.312 250.77Q691.516 250.57 694.724 250.429Q697.932 250.287 701.141 250.205Q704.351 250.122 707.561 250.098Q710.772 250.074 713.982 250.109Q717.193 250.144 720.402 250.237Q723.611 250.331 726.818 250.483Q730.026 250.636 733.229 250.847Q736.433 251.058 739.632 251.327Q742.832 251.597 746.026 251.925Q749.219 252.253 752.407 252.639Q755.594 253.025 758.774 253.47Q761.953 253.915 765.125 254.417Q768.296 254.92 771.457 255.481Q774.618 256.042 777.769 256.66Q780.919 257.278 784.058 257.954Q787.197 258.63 790.323 259.364Q793.448 260.097 796.56 260.887Q799.672 261.678 802.769 262.525Q805.866 263.372 808.947 264.276Q812.028 265.179 815.091 266.139Q818.155 267.099 821.201 268.115C838.726 273.975 855.212 280.613 871.205 289.913L871.048 291.01L870.682 290.949L871.703 290.281L871.918 290.478L871.688 291.043L872.136 290.831L871.728 290.07L871.435 290.893C868.135 290.022 864.64 287.737 861.408 286.394Q849.501 281.543 837.377 277.26Q831.115 275.095 824.783 273.146Q818.451 271.197 812.056 269.466Q805.66 267.735 799.21 266.224Q792.759 264.713 786.26 263.423Q779.762 262.134 773.223 261.067Q766.684 260.001 760.112 259.159Q753.54 258.317 746.944 257.701Q740.347 257.084 733.733 256.694C676.181 253.32 621.091 264.985 567.417 285.141C555.595 289.581 542.174 293.289 532.598 301.797C526.352 303.77 520.027 306.149 513.465 306.731Z"/>
	<path fill="#1A7695" transform="scale(2.37793 2.37793)" d="M510.091 316.046C515.259 313.639 523.403 313.58 529.139 312.949Q543.118 311.346 557.16 310.443Q571.202 309.539 585.272 309.338Q599.341 309.136 613.403 309.636Q627.465 310.137 641.485 311.338C653.152 312.317 676.568 317.357 686.909 315.055C766.935 348.094 822.291 418.158 854.729 496.747Q855.599 498.861 856.308 501.034C829.024 488.962 804.7 475.657 779.739 459.269C780.188 454.773 782.999 438.818 780.471 435.707C779.16 436.236 778.65 437.659 778.119 438.917C775.934 444.087 774.538 449.809 772.904 455.182C763.608 449.038 754.26 443.194 744.584 437.668C737.369 433.548 729.708 429.823 722.877 425.097L722.825 424.342C722.378 417.366 724.614 401.738 722.262 396.19L721.477 395.825C717.276 398.669 714.151 414.928 712.075 420.173Q694.634 410.838 676.551 402.816C668.746 399.346 660.701 396.371 652.971 392.746C652.124 381.687 654.169 370.617 653.369 359.49C648.345 368.492 645.936 378.738 641.836 388.158C625.52 382.413 608.653 377.581 591.361 381.974C588.654 382.36 585.535 382.038 583.663 384.308C577.858 378.723 572.939 372.122 567.752 365.962C553.928 349.545 536.724 331.059 515.657 324.824Q512.916 320.408 510.091 316.046Z"/>
	<path fill="#47256E" transform="scale(2.37793 2.37793)" d="M558.077 321.29C573.595 319.858 588.864 322.238 604.06 325.123C674.233 338.447 737.249 369.579 789.689 418.212C800.738 428.459 812.361 438.782 820.888 451.31C816.553 447.649 812.655 443.324 808.666 439.288C750.257 382.012 674.357 340.493 593.162 328.009C573.301 324.955 553.424 325.207 533.459 323.549C541.601 322.351 549.873 321.911 558.077 321.29Z"/>
	<path fill="#F08482" transform="scale(2.37793 2.37793)" d="M343.047 350.797C352.733 346.824 360.562 338.588 370.113 333.948C410.446 314.354 448.773 311.515 493.057 312.101L492.908 312.417L492.874 313.56C491.362 321.792 489.914 329.489 490.8 337.897C485.509 342.827 479.97 347.692 475.077 353.016C465.556 363.377 457.227 374.456 446.921 384.119C439.924 388.823 433.775 394.359 427.493 399.951C420.821 391.908 414.218 383.611 406.912 376.138C412.833 388.441 418.034 401.095 423.251 413.709C409.521 422.301 392.715 432.383 383.164 445.691C378.368 449.595 373.727 453.91 368.775 457.587C360.311 449.387 353.781 438.093 343.984 431.453C348.826 442.96 354.006 454.422 357.968 466.269C349.29 473.646 340.569 481.052 332.225 488.807C326.628 494.009 321.02 501.025 314.573 505.025C309.159 498.316 305.742 490.497 299.527 484.345C300.67 494.048 303.536 503.498 305.749 512.998C297.34 521.222 288.092 528.593 279.497 536.633C265.476 549.75 251.891 564.783 240.255 580.071C238.814 583.832 235.947 587.444 233.68 590.774C234.686 585.015 235.727 579.245 237.326 573.616C238.701 552.168 243.454 531.734 248.758 510.971C266.143 442.907 290.104 397.43 343.047 350.797Z"/>
	<path fill="#B1324E" transform="scale(2.37793 2.37793)" d="M492.908 312.417L492.874 313.56C492.761 313.64 492.649 313.722 492.534 313.8C484.942 318.99 474.942 321.526 466.638 325.521Q454.614 331.337 443.014 337.959Q431.414 344.582 420.293 351.98C349.294 398.954 299.288 458.593 260.412 533.922C254.654 545.079 242.852 566.433 240.426 577.752C240.257 578.541 240.238 579.266 240.255 580.071C238.814 583.832 235.947 587.444 233.68 590.774C234.686 585.015 235.727 579.245 237.326 573.616C242.987 567.412 247.207 550.372 250.768 541.826C253.38 535.556 256.427 529.468 259.514 523.421Q267.735 507.14 277.172 491.534Q286.61 475.927 297.21 461.085C336.264 406.482 386.068 361.614 445.835 330.717C461.091 322.831 475.759 315.252 492.908 312.417Z"/>
	<path fill="#F08482" transform="scale(2.37793 2.37793)" d="M492.874 313.56C491.362 321.792 489.914 329.489 490.8 337.897C485.509 342.827 479.97 347.692 475.077 353.016C465.556 363.377 457.227 374.456 446.921 384.119C439.924 388.823 433.775 394.359 427.493 399.951C420.821 391.908 414.218 383.611 406.912 376.138C412.833 388.441 418.034 401.095 423.251 413.709C409.521 422.301 392.715 432.383 383.164 445.691C378.368 449.595 373.727 453.91 368.775 457.587C360.311 449.387 353.781 438.093 343.984 431.453C348.826 442.96 354.006 454.422 357.968 466.269C349.29 473.646 340.569 481.052 332.225 488.807C326.628 494.009 321.02 501.025 314.573 505.025C309.159 498.316 305.742 490.497 299.527 484.345C300.67 494.048 303.536 503.498 305.749 512.998C297.34 521.222 288.092 528.593 279.497 536.633C265.476 549.75 251.891 564.783 240.255 580.071C240.238 579.266 240.257 578.541 240.426 577.752C242.852 566.433 254.654 545.079 260.412 533.922C299.288 458.593 349.294 398.954 420.293 351.98Q431.414 344.582 443.014 337.959Q454.614 331.337 466.638 325.521C474.942 321.526 484.942 318.99 492.534 313.8C492.649 313.722 492.761 313.64 492.874 313.56Z"/>
	<path fill="#DE5A5A" transform="scale(2.37793 2.37793)" d="M358.817 41.0469C410.955 65.3654 468.002 99.6579 498.575 150.166C503.455 158.228 508.23 166.657 511.819 175.383C514.42 181.707 516.213 188.952 519.752 194.805C522.025 205.504 524.505 216.619 524.787 227.589C525.422 252.219 513.941 278.818 505.452 301.501C504.802 303.121 504.012 304.783 503.678 306.497C502.418 308.165 501.37 309.84 499.483 310.842C498.738 310.828 498.283 310.904 497.621 310.53L494.523 309.591C488.902 305.958 482.312 303.468 476.172 300.851C458.429 293.287 440.363 286.3 421.515 281.997C409.812 279.325 397.854 278.178 386.529 274C374.101 265.701 359.292 261.218 345.581 255.463C351.999 246.727 359.572 239.074 366.253 230.571C354.973 235.699 345.209 244.381 334.435 250.604C318.641 245.338 303.411 239.193 287.383 234.485C291.315 225.6 296.829 217.544 301.67 209.142C292.051 214.908 284.851 223.798 275.763 230.335C269.439 228.664 263.288 226.312 256.99 224.535C246.185 221.486 233.481 219.606 223.631 214.235C221.299 212.963 220.277 211.572 218.866 209.342L214.108 213.016C204.926 210.833 195.834 208.401 186.59 206.465C169.929 202.975 153.154 200.357 136.348 197.688C147.059 192.001 158.677 187.475 170.082 183.393C243.258 157.203 327.789 149.429 398.77 186.501C407.575 191.099 416.368 196.443 424.149 202.623C430.948 208.024 437.033 215.768 444.963 219.42C445.118 219.491 445.275 219.558 445.431 219.628Q451.9 221.793 458.485 223.573C453.889 220.011 448.216 217.908 444.124 213.686C437.991 207.358 432.005 188.876 429.547 180.057C428.977 178.01 429.555 175.265 428.65 173.46C428.291 172.743 427.108 171.687 426.554 171.052C425.865 170.262 425.273 169.56 424.783 168.618C422.173 163.602 420.27 157.745 417.92 152.518C413.875 143.519 409.334 134.698 405.457 125.634C404.185 122.66 403.624 118.315 402.021 115.731C400.738 113.662 398.727 112.037 397.465 109.882C392.679 101.709 388.975 92.5016 384.58 84.0607C377.966 71.3566 370.41 58.9805 363.119 46.6487L358.817 41.0469ZM363.119 46.6487C370.41 58.9805 377.966 71.3566 384.58 84.0607C388.975 92.5016 392.679 101.709 397.465 109.882C398.727 112.037 400.738 113.662 402.021 115.731C403.624 118.315 404.185 122.66 405.457 125.634C409.334 134.698 413.875 143.519 417.92 152.518C420.27 157.745 422.173 163.602 424.783 168.618C425.273 169.56 425.865 170.262 426.554 171.052C427.108 171.687 428.291 172.743 428.65 173.46C429.555 175.265 428.977 178.01 429.547 180.057C432.005 188.876 437.991 207.358 444.124 213.686C448.216 217.908 453.889 220.011 458.485 223.573Q451.9 221.793 445.431 219.628C444.978 222.408 448.454 228.318 449.548 231.202C452.118 237.978 453.986 244.87 454.737 252.084C460.312 257.932 466.775 262.922 472.499 268.647C483.184 279.333 491.261 291.322 498.949 304.223Q499.078 298.146 498.845 292.072C496.107 219.32 462.42 150.119 415.303 95.777C401.426 79.7715 386.08 65.2977 370.572 50.9046C368.018 49.2489 366.073 47.6222 363.119 46.6487Z"/>
	<path fill="#B1324E" transform="scale(2.37793 2.37793)" d="M370.572 50.9046C380.84 54.1654 390.791 64.5682 398.52 71.9228C428.247 100.21 452.776 128.451 471.807 165.154C487.671 195.751 498.738 229.574 502.286 263.933C503.536 276.033 501.375 290.004 505.452 301.501C504.802 303.121 504.012 304.783 503.678 306.497C502.418 308.165 501.37 309.84 499.483 310.842C498.738 310.828 498.283 310.904 497.621 310.53C491.152 299.6 480.052 290.586 470.43 282.459C442.278 258.681 412.413 237.786 379.041 221.968C325.179 196.438 246.278 177.419 186.642 185.851C179.725 186.829 171.393 187.661 164.852 190.073C162.627 190.893 159.3 191.66 156.96 191.446C158.547 189.816 186.106 185.096 190.263 184.396Q193.693 183.852 197.132 183.377Q200.572 182.902 204.021 182.496Q207.47 182.09 210.926 181.753Q214.382 181.417 217.844 181.15Q221.307 180.883 224.773 180.686Q228.24 180.488 231.711 180.361Q235.181 180.233 238.653 180.176Q242.125 180.118 245.597 180.13Q249.07 180.142 252.541 180.224Q256.013 180.306 259.482 180.458Q262.951 180.609 266.417 180.831Q269.882 181.052 273.342 181.343Q276.803 181.634 280.257 181.995Q283.71 182.355 287.156 182.785Q290.602 183.215 294.038 183.714Q297.475 184.213 300.901 184.781Q304.326 185.349 307.74 185.986Q311.153 186.623 314.554 187.328Q317.954 188.033 321.339 188.807Q324.724 189.58 328.093 190.422Q331.462 191.263 334.814 192.172Q338.165 193.081 341.498 194.057Q344.83 195.033 348.142 196.076Q351.455 197.119 354.745 198.229Q358.036 199.338 361.303 200.513Q364.571 201.689 367.814 202.929Q371.057 204.17 374.275 205.476Q377.493 206.781 380.684 208.152Q383.874 209.522 387.037 210.956Q390.2 212.39 393.333 213.887Q396.466 215.384 399.568 216.944Q402.671 218.504 405.741 220.126C423.17 229.516 438.569 240.77 454.737 252.084C460.312 257.932 466.775 262.922 472.499 268.647C483.184 279.333 491.261 291.322 498.949 304.223Q499.078 298.146 498.845 292.072C496.107 219.32 462.42 150.119 415.303 95.777C401.426 79.7715 386.08 65.2977 370.572 50.9046Z"/>
	<path fill="#DE5A5A" transform="scale(2.37793 2.37793)" d="M358.817 41.0469C410.955 65.3654 468.002 99.6579 498.575 150.166C503.455 158.228 508.23 166.657 511.819 175.383C514.42 181.707 516.213 188.952 519.752 194.805C522.025 205.504 524.505 216.619 524.787 227.589C525.422 252.219 513.941 278.818 505.452 301.501C501.375 290.004 503.536 276.033 502.286 263.933C498.738 229.574 487.671 195.751 471.807 165.154C452.776 128.451 428.247 100.21 398.52 71.9228C390.791 64.5682 380.84 54.1654 370.572 50.9046C368.018 49.2489 366.073 47.6222 363.119 46.6487L358.817 41.0469Z"/>
	<path fill="#F08482" transform="scale(2.37793 2.37793)" d="M363.119 46.6487C366.073 47.6222 368.018 49.2489 370.572 50.9046C386.08 65.2977 401.426 79.7715 415.303 95.777C462.42 150.119 496.107 219.32 498.845 292.072Q499.078 298.146 498.949 304.223C491.261 291.322 483.184 279.333 472.499 268.647C466.775 262.922 460.312 257.932 454.737 252.084C453.986 244.87 452.118 237.978 449.548 231.202C448.454 228.318 444.978 222.408 445.431 219.628Q451.9 221.793 458.485 223.573C453.889 220.011 448.216 217.908 444.124 213.686C437.991 207.358 432.005 188.876 429.547 180.057C428.977 178.01 429.555 175.265 428.65 173.46C428.291 172.743 427.108 171.687 426.554 171.052C425.865 170.262 425.273 169.56 424.783 168.618C422.173 163.602 420.27 157.745 417.92 152.518C413.875 143.519 409.334 134.698 405.457 125.634C404.185 122.66 403.624 118.315 402.021 115.731C400.738 113.662 398.727 112.037 397.465 109.882C392.679 101.709 388.975 92.5016 384.58 84.0607C377.966 71.3566 370.41 58.9805 363.119 46.6487ZM431.485 173.399C432.201 175.378 433.098 177.082 434.178 178.886C440.852 180.312 447.723 181.216 454.558 181.05C453.056 178.398 447.47 177.196 444.624 176.4C440.289 175.188 435.899 174.269 431.485 173.399Z"/>
</svg>
